<svg id="Layer_1" data-name="Layer 1" xmlns="http://www.w3.org/2000/svg" xmlns:xlink="http://www.w3.org/1999/xlink" viewBox="0 0 538.58 538.58"><defs><style>.cls-1{fill:#fff}.cls-2{fill:#0d57a7}.cls-3{fill:#409ad6}.cls-10,.cls-4{fill:#231815}.cls-5{fill:url(#linear-gradient)}.cls-6{fill:url(#linear-gradient-2)}.cls-7{fill:url(#linear-gradient-3)}.cls-10,.cls-8{opacity:.05}.cls-9{fill:url(#linear-gradient-4)}</style><linearGradient id="linear-gradient" x1="220.42" y1="320.46" x2="220.42" y2="239.66" gradientUnits="userSpaceOnUse"><stop offset=".39" stop-color="#dcdddd" stop-opacity="0"/><stop offset="1" stop-color="#dcdddd"/></linearGradient><linearGradient id="linear-gradient-2" x1="321.38" y1="280.16" x2="321.38" y2="196.17" xlink:href="#linear-gradient"/><linearGradient id="linear-gradient-3" x1="171.83" y1="356.5" x2="365.89" y2="356.5" gradientUnits="userSpaceOnUse"><stop offset="0" stop-color="#eeeeec"/><stop offset="1" stop-color="#fff"/></linearGradient><linearGradient id="linear-gradient-4" x1="162.9" y1="216.73" x2="373.59" y2="216.73" xlink:href="#linear-gradient-3"/></defs><title>01アートボード 1</title><path class="cls-1" d="M0 0h538.58v538.58H0z"/><path class="cls-2" d="M405.5 467.45l-136.21 36.68-136.21-36.68-31.43-340.52h335.29L405.5 467.45z"/><path class="cls-3" d="M269.29 154.51v320.37l.31.08 110.22-29.68 25.45-290.77H269.29z"/><path class="cls-4" d="M191.99 76.9V56.63h29.57V34.45h-51.75v62.69h51.75V76.9h-29.57zM274.75 56.63h20.67V34.45h-51.75v22.18c6.92 6.92 10.53 10.24 20.55 20.25h-20.55v20.26h51.75V76.9zM348.1 56.63h20.67V34.45H317v22.18c6.92 6.92 10.54 10.24 20.55 20.25L317 76.9v20.24h51.76V76.9z"/><path class="cls-1" d="M269.17 239.66l-97.49 40.6 3.23 40.2 94.26-40.3 100.26-42.87 4.16-41.12-104.42 43.49z"/><path class="cls-5" d="M171.68 280.26l3.23 40.2 94.26-40.3v-40.5l-97.49 40.6z"/><path class="cls-6" d="M373.59 196.17l-104.42 43.49v40.5l100.26-42.87 4.16-41.12z"/><path class="cls-7" d="M171.83 280.26l3.23 40.2 144.63.46-3.24 53.6-47.59 13.4-45.75-11.56-2.77-33.26h-42.51l5.55 64.22 85.94 25.41 85.48-24.95 11.09-127.52H171.83z"/><g class="cls-8"><path class="cls-4" d="M269.17 280.26h-97.49l3.23 40.2 94.26.3v-40.5zM269.17 387.79l-.46.13-45.75-11.56-2.77-33.26h-42.51l5.55 64.22 85.94 25.41v-44.94z"/></g><path class="cls-9" d="M162.9 196.17h210.69l-4.16 41.12H167.98l-5.08-41.12z"/><path class="cls-10" d="M269.17 196.17H162.9l5.08 41.12h101.19v-41.12z"/></svg>